<svg width="54" height="54" viewBox="0 0 54 54" fill="none" xmlns="http://www.w3.org/2000/svg">
<path d="M25.7752 0.0143907C12.3192 0.454391 0.996509 11.3371 0.0658421 24.7691C-0.918158 38.9797 9.24451 50.9877 22.6818 53.0064V33.7344H18.3778C16.4418 33.7344 14.8738 32.1664 14.8738 30.2304C14.8738 28.2944 16.4418 26.7264 18.3778 26.7264H22.6792V22.0624C22.6792 14.3397 26.4418 10.9504 32.8605 10.9504C33.8125 10.9504 34.6258 10.9717 35.3165 11.0064C37.0125 11.0891 38.3272 12.5024 38.3272 14.2011C38.3272 15.9691 36.8952 17.4011 35.1272 17.4011H33.9485C31.2232 17.4011 30.2712 19.9851 30.2712 22.8971V26.7291H35.2578C36.8338 26.7291 38.0392 28.1344 37.7992 29.6917L37.5112 31.5611C37.3165 32.8144 36.2392 33.7397 34.9698 33.7397H30.2712V53.0651C43.2925 51.2971 53.3325 40.1664 53.3325 26.6677C53.3325 11.6437 40.9085 -0.476276 25.7752 0.0143907Z" fill="white"/>
</svg>
