<svg width="49" height="30" viewBox="0 0 49 30" fill="none" xmlns="http://www.w3.org/2000/svg">
<path d="M41.3438 7.73438C41.3438 8.31562 40.9609 8.84531 40.3331 9.225C39.713 9.60938 38.8478 9.84375 37.8984 9.84375H11.1016C9.19516 9.84375 7.65625 8.90156 7.65625 7.73438C7.65625 7.18125 8.00078 6.675 8.58266 6.3C8.60563 6.28125 8.63625 6.2625 8.66687 6.24375C9.28703 5.85937 10.1522 5.625 11.1016 5.625H37.8984C39.8048 5.625 41.3438 6.56719 41.3438 7.73438Z" fill="#1283DD"/>
<path opacity="0.3" d="M27.5625 5.625C27.5625 6.91875 25.8475 7.96875 23.7344 7.96875H12.25C11.1934 7.96875 10.2364 7.70625 9.53969 7.28437C9.10328 7.0125 8.76641 6.675 8.58266 6.3C8.60563 6.28125 8.63625 6.2625 8.66688 6.24375C9.28703 5.85937 10.1522 5.625 11.1016 5.625H27.5625Z" fill="white"/>
<path opacity="0.3" d="M24.5 30C32.9569 30 39.8125 29.3704 39.8125 28.5938C39.8125 27.8171 32.9569 27.1875 24.5 27.1875C16.0431 27.1875 9.1875 27.8171 9.1875 28.5938C9.1875 29.3704 16.0431 30 24.5 30Z" fill="black"/>
<path d="M37.8984 23.9062H11.1016C9.19898 23.9062 7.65625 22.9617 7.65625 21.7969C7.65625 20.632 9.19898 19.6875 11.1016 19.6875H37.8984C39.801 19.6875 41.3438 20.632 41.3438 21.7969C41.3438 22.9617 39.801 23.9062 37.8984 23.9062Z" fill="#1283DD"/>
<path d="M37.8984 16.875H11.1016C9.19898 16.875 7.65625 15.9305 7.65625 14.7656C7.65625 13.6008 9.19898 12.6562 11.1016 12.6562H37.8984C39.801 12.6562 41.3438 13.6008 41.3438 14.7656C41.3438 15.9305 39.801 16.875 37.8984 16.875Z" fill="#1283DD"/>
<path opacity="0.15" d="M37.8984 19.6875H35.6169C35.5556 20.1047 35.6781 20.5266 35.9614 20.9016C36.1988 21.2109 35.8236 21.5625 35.2723 21.5625H28.3281C26.215 21.5625 24.5077 22.6078 24.5 23.9062H37.8984C38.8478 23.9062 39.713 23.6719 40.3331 23.2875C40.9609 22.9078 41.3438 22.3781 41.3438 21.7969C41.3438 20.6297 39.8048 19.6875 37.8984 19.6875Z" fill="black"/>
<path d="M15.6953 7.96875H12.6328C11.9981 7.96875 11.4844 7.65422 11.4844 7.26562C11.4844 6.87703 11.9981 6.5625 12.6328 6.5625H15.6953C16.33 6.5625 16.8438 6.87703 16.8438 7.26562C16.8438 7.65422 16.33 7.96875 15.6953 7.96875Z" fill="white"/>
</svg>
