<svg width="30" height="24" viewBox="0 0 30 24" fill="none" xmlns="http://www.w3.org/2000/svg">
<path d="M14.8066 0L18.1744 8.88973H29.0725L20.2557 14.3839L23.6234 23.2736L14.8066 17.7795L5.98986 23.2736L9.35757 14.3839L0.540792 8.88973H11.4389L14.8066 0Z" fill="#CEBF34"/>
<path d="M14.8066 0L18.1744 8.88973H29.0725L20.2557 14.3839L23.6234 23.2736L14.8066 17.7795L5.98986 23.2736L9.35757 14.3839L0.540792 8.88973H11.4389L14.8066 0Z" fill="#CEBF34"/>
<path d="M14.8066 0L18.1744 8.88973H29.0725L20.2557 14.3839L23.6234 23.2736L14.8066 17.7795L5.98986 23.2736L9.35757 14.3839L0.540792 8.88973H11.4389L14.8066 0Z" fill="#CEBF34"/>
</svg>
