<svg width="51" height="51" viewBox="0 0 51 51" fill="none" xmlns="http://www.w3.org/2000/svg">
<path d="M25.5 0C11.4384 0 0 11.4384 0 25.5C0 39.5616 11.4384 51 25.5 51C39.5616 51 51 39.5616 51 25.5C51 11.4384 39.5616 0 25.5 0ZM37.9584 20.5375C37.9695 20.7991 37.9762 21.0652 37.9762 21.3324C37.9762 29.4458 31.7974 38.8043 20.5009 38.8043C17.0329 38.8043 13.8033 37.7877 11.087 36.0448C11.567 36.1025 12.0537 36.1302 12.5515 36.1302C15.4297 36.1302 18.0784 35.1501 20.1783 33.5026C17.4908 33.4538 15.2246 31.6743 14.4408 29.2374C14.8166 29.3095 15.2013 29.3483 15.5982 29.3483C16.1581 29.3483 16.7014 29.274 17.2147 29.1321C14.4075 28.5655 12.291 26.0865 12.291 23.1097C12.291 23.083 12.291 23.0575 12.291 23.032C13.1192 23.4922 14.0649 23.7693 15.0727 23.8015C13.423 22.6983 12.3409 20.8202 12.3409 18.6893C12.3409 17.564 12.6425 16.5096 13.1713 15.6005C16.2014 19.3157 20.7271 21.7604 25.8304 22.0176C25.7251 21.5675 25.6696 21.0996 25.6696 20.6184C25.6696 17.2269 28.4192 14.4773 31.8118 14.4773C33.578 14.4773 35.1734 15.2224 36.2932 16.4165C37.6912 16.1415 39.0072 15.6304 40.1935 14.9275C39.7356 16.3599 38.7611 17.564 37.4917 18.3245C38.7356 18.1737 39.9175 17.8456 41.0206 17.3566C40.198 18.5884 39.1569 19.6716 37.9584 20.5375Z" fill="white"/>
</svg>
