<svg width="54" height="54" viewBox="0 0 54 54" fill="none" xmlns="http://www.w3.org/2000/svg">
<circle cx="27" cy="27" r="27" fill="#327EBA"/>
<path d="M13.2337 39V18.8182H18.831V39H13.2337ZM16.0455 16.2166C15.2133 16.2166 14.4994 15.9407 13.9038 15.3888C13.3169 14.8282 13.0234 14.1581 13.0234 13.3785C13.0234 12.6077 13.3169 11.9464 13.9038 11.3945C14.4994 10.8339 15.2133 10.5536 16.0455 10.5536C16.8776 10.5536 17.5871 10.8339 18.174 11.3945C18.7696 11.9464 19.0675 12.6077 19.0675 13.3785C19.0675 14.1581 18.7696 14.8282 18.174 15.3888C17.5871 15.9407 16.8776 16.2166 16.0455 16.2166ZM28.912 27.3324V39H23.3147V18.8182H28.6492V22.3789H28.8857C29.3325 21.2051 30.0814 20.2766 31.1325 19.5934C32.1837 18.9014 33.4582 18.5554 34.9561 18.5554C36.3576 18.5554 37.5795 18.862 38.6219 19.4751C39.6643 20.0883 40.4745 20.9643 41.0526 22.103C41.6308 23.233 41.9198 24.5819 41.9198 26.1499V39H36.3225V27.1484C36.3313 25.9134 36.016 24.9498 35.3765 24.2578C34.7371 23.5571 33.8567 23.2067 32.7355 23.2067C31.9822 23.2067 31.3165 23.3687 30.7384 23.6928C30.169 24.0169 29.7223 24.4899 29.3982 25.1119C29.0828 25.725 28.9208 26.4652 28.912 27.3324Z" fill="white"/>
</svg>
